<svg xmlns="http://www.w3.org/2000/svg" viewBox="0 0 840 250" width="840" height="250" role="img" aria-label="Share of code by language across coldzero94's 22 non-fork public repos, 6.9 MB in total. Go leads at 30.7%. Full breakdown: Go 30.7% · TypeScript 26.4% · Others 5.6% · Kotlin 15.9% · Swift 8.7% · Python 12.7%. Auto-updated 2026-07-31.">
  <style>
    text { font: 13px ui-monospace, 'SF Mono', Menlo, Consolas, monospace; }
    .name  { fill: #e6edf3; }
    .pct   { fill: #e6edf3; text-anchor: end; font-variant-numeric: tabular-nums; }
    .desc  { fill: #8b949e; font-size: 12px; }
    .lead  { fill: #e6edf3; font-size: 20px; font-weight: 600; text-anchor: middle; }
    .share { fill: #e6edf3; font-size: 13px; text-anchor: middle; }
    .of    { fill: #8b949e; font-size: 10.5px; text-anchor: middle; }
    .foot  { fill: #6e7681; font-size: 11.5px; }
  </style>
  <rect x="0.5" y="0.5" width="839" height="249" rx="12" fill="#0d1117" stroke="#30363d"/>

  <circle cx="132" cy="125" r="66" fill="none" stroke="#21262d" stroke-width="22"/>
  <circle cx="132" cy="125" r="66" fill="none" stroke="#3987e5" stroke-width="22" stroke-dasharray="124.26 414.69" stroke-dashoffset="-0.00" transform="rotate(-90 132 125)"/>
  <circle cx="132" cy="125" r="66" fill="none" stroke="#d95926" stroke-width="22" stroke-dasharray="106.65 414.69" stroke-dashoffset="-127.26" transform="rotate(-90 132 125)"/>
  <circle cx="132" cy="125" r="66" fill="none" stroke="#6E7681" stroke-width="22" stroke-dasharray="20.11 414.69" stroke-dashoffset="-236.91" transform="rotate(-90 132 125)"/>
  <circle cx="132" cy="125" r="66" fill="none" stroke="#c98500" stroke-width="22" stroke-dasharray="62.75 414.69" stroke-dashoffset="-260.02" transform="rotate(-90 132 125)"/>
  <circle cx="132" cy="125" r="66" fill="none" stroke="#9085e9" stroke-width="22" stroke-dasharray="33.20 414.69" stroke-dashoffset="-325.77" transform="rotate(-90 132 125)"/>
  <circle cx="132" cy="125" r="66" fill="none" stroke="#199e70" stroke-width="22" stroke-dasharray="49.71 414.69" stroke-dashoffset="-361.98" transform="rotate(-90 132 125)"/>
  <text class="lead" x="132" y="114">Go</text>
  <text class="share" x="132" y="132">30.7%</text>
  <text class="of" x="132" y="148">of my code</text>

  <rect x="272" y="32" width="12" height="12" rx="3" fill="#3987e5"/>
  <text class="name" x="294" y="42">Go</text>
  <text class="pct" x="452" y="42">30.7%</text>
  <text class="desc" x="470" y="42">Backend, single-binary services</text>
  <rect x="272" y="64" width="12" height="12" rx="3" fill="#d95926"/>
  <text class="name" x="294" y="74">TypeScript</text>
  <text class="pct" x="452" y="74">26.4%</text>
  <text class="desc" x="470" y="74">Next.js, React, Node.js</text>
  <rect x="272" y="96" width="12" height="12" rx="3" fill="#6E7681"/>
  <text class="name" x="294" y="106">Others</text>
  <text class="pct" x="452" y="106">5.6%</text>
  <text class="desc" x="470" y="106">HTML, CSS, Shell, +9 more</text>
  <rect x="272" y="128" width="12" height="12" rx="3" fill="#c98500"/>
  <text class="name" x="294" y="138">Kotlin</text>
  <text class="pct" x="452" y="138">15.9%</text>
  <text class="desc" x="470" y="138">Android, JVM services</text>
  <rect x="272" y="160" width="12" height="12" rx="3" fill="#9085e9"/>
  <text class="name" x="294" y="170">Swift</text>
  <text class="pct" x="452" y="170">8.7%</text>
  <text class="desc" x="470" y="170">iOS, SwiftUI, macOS</text>
  <rect x="272" y="192" width="12" height="12" rx="3" fill="#199e70"/>
  <text class="name" x="294" y="202">Python</text>
  <text class="pct" x="452" y="202">12.7%</text>
  <text class="desc" x="470" y="202">AI/ML, FastAPI, Django</text>
  <text class="foot" x="272" y="230">auto-updated 2026-07-31 · 6.9 MB across 22 public repos, forks excluded</text>
</svg>
