<svg xmlns="http://www.w3.org/2000/svg" viewBox="0 0 840 72" width="840" height="72" role="img" aria-label="GitHub activity: 2,907 contributions in the last year, best day 139, best streak 24 days, about 7.9 per day. Sparkline of the last 30 days.">
  <style>
    text { font: 13.5px ui-monospace, 'SF Mono', Menlo, Consolas, monospace; }
    .p { fill: #7ee787; }
    .n { fill: #7ee787; font-weight: 600; }
    .o { fill: #8b949e; }
  </style>
  <rect x="0.5" y="0.5" width="839" height="71" rx="10" fill="#0d1117" stroke="#30363d"/>
  <text x="24" y="41"><tspan class="p">❯</tspan><tspan dx="8"><tspan class="n">2,907</tspan><tspan class="o"> contributions/yr</tspan><tspan class="o" dx="7">·</tspan><tspan class="n" dx="7">139</tspan><tspan class="o"> best day</tspan><tspan class="o" dx="7">·</tspan><tspan class="n" dx="7">24d</tspan><tspan class="o"> streak</tspan><tspan class="o" dx="7">·</tspan><tspan class="n" dx="7">~7.9</tspan><tspan class="o">/day</tspan></tspan></text>
  <rect x="609" y="48" width="4" height="4" rx="1" fill="#0e4429"/><rect x="616" y="48" width="4" height="4" rx="1" fill="#0e4429"/><rect x="623" y="48" width="4" height="4" rx="1" fill="#0e4429"/><rect x="630" y="48" width="4" height="4" rx="1" fill="#0e4429"/><rect x="637" y="48" width="4" height="4" rx="1" fill="#0e4429"/><rect x="644" y="48" width="4" height="4" rx="1" fill="#0e4429"/><rect x="651" y="42" width="4" height="10" rx="1" fill="#006d32"/><rect x="658" y="42" width="4" height="10" rx="1" fill="#006d32"/><rect x="665" y="40" width="4" height="12" rx="1" fill="#006d32"/><rect x="672" y="48" width="4" height="4" rx="1" fill="#0e4429"/><rect x="679" y="46" width="4" height="6" rx="1" fill="#0e4429"/><rect x="686" y="48" width="4" height="4" rx="1" fill="#0e4429"/><rect x="693" y="48" width="4" height="4" rx="1" fill="#0e4429"/><rect x="700" y="42" width="4" height="10" rx="1" fill="#006d32"/><rect x="707" y="46" width="4" height="6" rx="1" fill="#0e4429"/><rect x="714" y="44" width="4" height="8" rx="1" fill="#0e4429"/><rect x="721" y="48" width="4" height="4" rx="1" fill="#0e4429"/><rect x="728" y="44" width="4" height="8" rx="1" fill="#0e4429"/><rect x="735" y="50" width="4" height="2" rx="1" fill="#21262d"/><rect x="742" y="50" width="4" height="2" rx="1" fill="#21262d"/><rect x="749" y="48" width="4" height="4" rx="1" fill="#0e4429"/><rect x="756" y="48" width="4" height="4" rx="1" fill="#0e4429"/><rect x="763" y="48" width="4" height="4" rx="1" fill="#0e4429"/><rect x="770" y="48" width="4" height="4" rx="1" fill="#0e4429"/><rect x="777" y="48" width="4" height="4" rx="1" fill="#0e4429"/><rect x="784" y="50" width="4" height="2" rx="1" fill="#21262d"/><rect x="791" y="50" width="4" height="2" rx="1" fill="#21262d"/><rect x="798" y="48" width="4" height="4" rx="1" fill="#0e4429"/><rect x="805" y="20" width="4" height="32" rx="1" fill="#39d353"/><rect x="812" y="48" width="4" height="4" rx="1" fill="#0e4429"/>
</svg>
